<svg version="1.1" id="Layer_1" xmlns="http://www.w3.org/2000/svg" xmlns:xlink="http://www.w3.org/1999/xlink" x="0px" y="0px"
	 width="100%" viewBox="0 0 383 152" enable-background="new 0 0 383 152" xml:space="preserve">
<path fill="#FDFEFE" opacity="1.000000" stroke="none" 
	d="
M49.000000,1.000000 
	C160.620438,1.000000 272.240875,1.000000 383.930664,1.000000 
	C383.930664,51.599377 383.930664,102.198875 383.930664,152.899185 
	C256.453461,152.899185 128.906830,152.899185 1.180096,152.899185 
	C1.180096,102.333832 1.180096,51.666985 1.180096,1.000000 
	C12.405341,1.000000 23.734013,1.000000 35.595451,1.367171 
	C37.757679,2.490507 39.430077,3.168340 41.001740,4.029935 
	C42.078293,4.620109 43.014606,5.466095 43.728760,6.403699 
	C38.115658,7.470951 34.968494,10.791746 33.508396,15.762323 
	C31.970520,20.997673 33.402626,25.611567 37.310505,29.290535 
	C40.085743,31.903214 43.314877,33.334618 47.453175,30.943153 
	C53.743599,33.224033 59.069107,32.649055 63.891617,27.793655 
	C64.461319,27.097006 64.702492,26.495132 64.978889,25.649658 
	C65.014122,25.406057 65.231667,24.964460 65.425079,24.794445 
	C65.704117,24.297325 65.789749,23.970221 65.868378,23.350460 
	C65.983421,22.689144 66.105446,22.320488 66.464836,21.662888 
	C67.030327,19.433990 67.411308,17.501184 67.674873,15.552496 
	C68.133438,12.162014 63.928764,7.708374 60.399345,8.088324 
	C59.374134,7.635521 58.663025,7.215559 57.719162,6.565495 
	C56.625465,6.242398 55.764523,6.149404 54.576019,6.122477 
	C53.581272,6.189141 52.914078,6.189738 51.909851,6.021371 
	C50.715214,4.234938 49.857609,2.617469 49.000000,1.000000 
M321.080963,147.515411 
	C325.893433,147.353485 330.705872,147.191544 335.931915,146.172714 
	C335.941162,138.834717 335.950409,131.496719 336.466034,123.698502 
	C341.991699,123.821213 347.523407,124.166855 353.041748,124.018326 
	C363.253540,123.743484 371.602753,116.671928 372.778687,106.529633 
	C373.612457,99.338615 373.768341,91.939705 373.117157,84.733864 
	C371.918030,71.464607 364.289093,64.507416 350.950989,64.088097 
	C340.993988,63.775078 331.016663,64.107780 320.215027,64.412262 
	C320.120972,65.065651 319.945129,65.718987 319.944672,66.372437 
	C319.927704,92.153191 319.919434,117.933968 319.947968,143.714691 
	C319.949219,144.839066 320.306824,145.963028 321.080963,147.515411 
M280.752960,123.532791 
	C280.752960,96.023399 280.752960,68.514008 280.752960,40.466690 
	C276.301117,40.466690 272.178253,40.367863 268.066376,40.536758 
	C267.049133,40.578537 266.067596,41.489323 264.957062,42.497688 
	C264.999512,42.662174 265.041992,42.826664 264.911133,43.657913 
	C264.965942,44.110207 265.020721,44.562500 264.909485,45.936386 
	C264.954193,51.620926 264.998901,57.305470 264.724213,63.527153 
	C264.141296,63.738762 263.558380,63.950371 262.500702,64.054611 
	C262.500702,64.054611 262.026276,64.163445 261.269745,64.013161 
	C260.503296,64.060814 259.736847,64.108475 258.329620,64.028839 
	C257.898071,64.069901 257.466553,64.110962 256.114838,64.003014 
	C254.118652,63.995281 252.122421,63.973755 250.126312,63.982059 
	C237.682129,64.033829 229.475586,70.445320 227.752243,82.705544 
	C226.743790,89.879807 226.599380,97.350296 227.353683,104.552696 
	C228.266937,113.272408 232.496063,120.630867 241.732666,122.884193 
	C246.621063,124.076752 251.912323,123.617958 257.944397,124.065186 
	C265.290741,124.010956 272.637085,123.956726 280.752960,123.532791 
M306.898590,124.036118 
	C307.331512,123.281532 308.139313,122.528526 308.142487,121.772148 
	C308.220276,103.313271 308.227142,84.853996 308.167694,66.395042 
	C308.165253,65.637779 307.395660,64.882996 306.125000,63.988510 
	C301.513977,64.389717 296.902985,64.790932 292.364380,65.185837 
	C292.364380,84.494186 292.364380,104.057655 292.364380,123.914711 
	C297.111694,123.914711 301.561066,123.914711 306.898590,124.036118 
M198.848221,103.670113 
	C196.304977,111.279259 192.557251,113.358490 183.893585,111.966835 
	C180.333420,111.394966 177.312744,106.443245 177.251877,100.906929 
	C177.120270,88.935936 177.037048,76.964409 176.958466,64.460655 
	C176.647461,64.356018 176.336456,64.251381 175.220474,64.003464 
	C174.134796,64.053169 173.049133,64.102875 171.070511,64.021461 
	C168.068710,64.086426 165.066895,64.151390 161.297363,64.549843 
	C161.271576,77.344795 160.975693,90.146584 161.298935,102.932709 
	C161.598770,114.792580 169.364426,123.087959 180.449402,123.943947 
	C185.075714,124.301193 189.756378,124.329483 194.392761,124.104347 
	C204.438675,123.616539 212.477524,117.614357 213.900848,107.775085 
	C215.219574,98.658913 214.609985,89.263794 214.975479,79.143631 
	C214.933563,77.432068 214.891647,75.720512 214.997803,73.117630 
	C214.950867,70.411797 214.903931,67.705971 214.806046,64.374855 
	C214.215103,64.298340 213.624161,64.221817 212.497925,64.032738 
	C212.319794,64.071663 212.141663,64.110588 211.046249,64.006813 
	C207.118042,64.006813 203.189835,64.006813 199.083450,64.006813 
	C199.083450,77.396805 199.083450,90.184776 198.848221,103.670113 
M110.986679,122.994835 
	C110.986679,122.994835 110.950508,123.043877 111.428154,123.580894 
	C111.846992,122.588097 112.615585,121.600021 112.629044,120.601761 
	C112.731934,112.973389 112.688156,105.343033 112.688988,97.713295 
	C112.689720,90.964478 112.689140,84.215660 112.689140,77.161140 
	C117.583969,77.161140 121.854492,76.986046 126.103844,77.211014 
	C130.248322,77.430435 132.844635,79.665184 133.162918,84.919121 
	C133.170059,96.711082 133.158005,108.503128 133.204407,120.294937 
	C133.211624,122.131920 132.496613,124.712112 136.922501,124.126915 
	C141.012680,124.126915 145.102859,124.126915 149.337036,124.126915 
	C149.337036,109.673256 149.813263,95.768372 149.197586,81.911995 
	C148.628647,69.107796 139.783554,63.435524 128.500961,64.047150 
	C128.500961,64.047150 128.029495,64.149704 127.224297,64.001190 
	C126.137207,64.049179 125.050110,64.097168 123.038261,64.018784 
	C116.040108,64.060997 109.041954,64.103210 101.238068,63.999187 
	C100.150734,64.047203 99.063400,64.095222 97.487503,64.076546 
	C97.487503,64.076546 97.084976,64.361351 96.628349,64.949455 
	C96.628349,84.588669 96.628349,104.227875 96.628349,124.595673 
	C101.921463,124.026176 106.446526,123.539314 110.986679,122.994835 
M12.068455,80.660545 
	C9.366584,94.943947 7.369953,109.284340 8.178532,123.867065 
	C14.497359,123.867065 20.416157,123.867065 25.759743,123.867065 
	C27.541300,109.587051 28.823774,95.567108 31.160078,81.725037 
	C33.147915,69.947578 37.013680,58.637115 44.815666,49.177788 
	C46.728672,46.858406 49.052162,44.877590 52.175785,41.751492 
	C47.377136,41.751492 43.767654,42.110836 40.258507,41.670525 
	C34.431499,40.939381 30.103531,42.573238 26.428492,47.375904 
	C19.000717,57.082775 15.253834,68.271469 12.068455,80.660545 
M52.695740,55.715927 
	C61.276806,65.433067 63.754143,77.460182 64.878731,89.739006 
	C65.906662,100.962379 65.983276,112.272888 66.503914,124.108528 
	C71.243515,124.108528 76.099792,124.057114 80.954224,124.129639 
	C83.482033,124.167397 85.037819,123.578011 85.048241,120.558044 
	C85.104523,104.256729 85.080666,87.940163 80.849182,72.053009 
	C78.485947,63.180195 75.246986,54.562176 66.629204,49.566856 
	C61.734623,46.729698 55.856003,47.374981 52.515011,51.212749 
	C51.817265,52.014244 52.276791,53.823215 52.695740,55.715927 
z"/>
<path fill="#F6FBFA" opacity="1.000000" stroke="none" 
	d="
M44.013615,6.197724 
	C43.014606,5.466095 42.078293,4.620109 41.001740,4.029935 
	C39.430077,3.168340 37.757679,2.490507 36.064110,1.367171 
	C40.024544,1.000000 44.049088,1.000000 48.536816,1.000000 
	C49.857609,2.617469 50.715214,4.234938 51.654938,6.226909 
	C50.884789,6.814238 50.032520,7.027065 48.819054,7.107679 
	C46.976440,6.716219 45.495026,6.456972 44.013615,6.197724 
z"/>
<path fill="#0EB0B0" opacity="1.000000" stroke="none" 
	d="
M321.048401,64.152931 
	C331.016663,64.107780 340.993988,63.775078 350.950989,64.088097 
	C364.289093,64.507416 371.918030,71.464607 373.117157,84.733864 
	C373.768341,91.939705 373.612457,99.338615 372.778687,106.529633 
	C371.602753,116.671928 363.253540,123.743484 353.041748,124.018326 
	C347.523407,124.166855 341.991699,123.821213 335.909363,124.192924 
	C335.233917,128.994186 335.079956,133.300385 335.003479,137.607971 
	C334.832458,147.237717 336.317657,145.658585 326.461884,146.099518 
	C322.002472,146.299011 320.870056,144.896149 320.907806,140.513245 
	C321.126984,115.061295 321.035126,89.606659 321.048401,64.152931 
M349.004272,77.129997 
	C344.896484,76.836899 340.788727,76.543793 336.340637,76.226410 
	C336.340637,88.220451 336.340637,99.766647 336.340637,111.824753 
	C339.113281,111.824753 341.575958,111.842857 344.038208,111.817497 
	C345.369141,111.803780 346.716034,111.831329 348.027069,111.641922 
	C354.588959,110.693916 356.899506,108.074776 356.988159,101.395523 
	C357.054474,96.398689 356.963776,91.399971 356.987183,86.402306 
	C357.010406,81.450623 355.097412,78.044701 349.004272,77.129997 
z"/>
<path fill="#0CB0B0" opacity="1.000000" stroke="none" 
	d="
M265.075500,45.014793 
	C265.020721,44.562500 264.965942,44.110207 265.199829,43.214546 
	C265.736511,42.575069 265.910461,42.327015 266.474304,42.017014 
	C271.054321,42.007008 275.170349,42.007008 279.601868,42.007008 
	C279.359955,43.863956 279.036224,45.135353 279.052887,46.402290 
	C279.327637,67.322960 279.672241,88.242760 279.908203,109.163811 
	C279.929993,111.094322 279.320740,113.031952 279.003540,115.419495 
	C278.937347,123.808670 279.795105,122.850960 271.713043,123.035454 
	C266.811859,123.147331 261.918549,123.603302 257.021698,123.904678 
	C251.912323,123.617958 246.621063,124.076752 241.732666,122.884193 
	C232.496063,120.630867 228.266937,113.272408 227.353683,104.552696 
	C226.599380,97.350296 226.743790,89.879807 227.752243,82.705544 
	C229.475586,70.445320 237.682129,64.033829 250.126312,63.982059 
	C252.122421,63.973755 254.118652,63.995281 256.722260,64.277344 
	C257.876587,64.419823 258.423492,64.287979 258.970398,64.156136 
	C259.736847,64.108475 260.503296,64.060814 261.737305,64.231155 
	C262.461700,64.353439 262.718597,64.257713 262.975464,64.161987 
	C263.558380,63.950371 264.141296,63.738762 265.171814,62.958923 
	C265.438080,56.598728 265.256805,50.806763 265.075500,45.014793 
M264.763550,104.407959 
	C264.763550,95.474205 264.763550,86.540451 264.763550,77.031685 
	C260.909607,77.031685 257.468201,76.984352 254.028519,77.041367 
	C246.449310,77.166985 243.629623,79.913658 243.184280,87.567978 
	C243.087830,89.225624 243.097443,90.890121 243.081299,92.551682 
	C242.902039,111.004364 244.835968,112.872566 263.200989,111.946686 
	C263.640625,111.924515 264.064240,111.584808 264.761597,111.274872 
	C264.761597,109.320564 264.761597,107.349724 264.763550,104.407959 
z"/>
<path fill="#10B2B2" opacity="1.000000" stroke="none" 
	d="
M133.293289,83.990486 
	C132.844635,79.665184 130.248322,77.430435 126.103844,77.211014 
	C121.854492,76.986046 117.583969,77.161140 112.689140,77.161140 
	C112.689140,84.215660 112.689720,90.964478 112.688988,97.713295 
	C112.688156,105.343033 112.731934,112.973389 112.629044,120.601761 
	C112.615585,121.600021 111.846992,122.588097 111.490051,123.016602 
	C111.551941,108.382072 111.551941,94.311836 111.551941,80.241592 
	C111.358490,80.241997 111.165039,80.242401 110.971588,80.242798 
	C110.971588,94.512688 110.971588,108.782570 110.971588,123.052460 
	C106.446526,123.539314 101.921463,124.026176 96.628349,124.595673 
	C96.628349,104.227875 96.628349,84.588669 96.970184,64.760551 
	C97.650139,64.655060 97.871490,64.512260 97.976067,64.143242 
	C99.063400,64.095222 100.150734,64.047203 101.952530,64.340500 
	C109.765671,64.502922 116.864349,64.324036 123.963020,64.145157 
	C125.050110,64.097168 126.137207,64.049179 127.713287,64.220978 
	C128.458511,64.345863 128.714767,64.250969 128.971008,64.156067 
	C139.783554,63.435524 148.628647,69.107796 149.197586,81.911995 
	C149.813263,95.768372 149.337036,109.673256 149.337036,124.126915 
	C145.102859,124.126915 141.012680,124.126915 136.257965,123.705887 
	C135.361008,121.492912 134.939957,119.702271 134.927719,117.908829 
	C134.862961,108.419533 134.984573,98.928169 134.830658,89.440956 
	C134.801041,87.616295 133.830002,85.806915 133.293289,83.990486 
z"/>
<path fill="#0DB1B1" opacity="1.000000" stroke="none" 
	d="
M214.849533,79.991508 
	C214.609985,89.263794 215.219574,98.658913 213.900848,107.775085 
	C212.477524,117.614357 204.438675,123.616539 194.392761,124.104347 
	C189.756378,124.329483 185.075714,124.301193 180.449402,123.943947 
	C169.364426,123.087959 161.598770,114.792580 161.298935,102.932709 
	C160.975693,90.146584 161.271576,77.344795 161.985809,64.627922 
	C165.770645,64.521523 168.867050,64.337051 171.963455,64.152573 
	C173.049133,64.102875 174.134796,64.053169 175.725067,64.263489 
	C176.415482,64.753464 176.650284,64.909988 176.934036,64.993095 
	C177.037048,76.964409 177.120270,88.935936 177.251877,100.906929 
	C177.312744,106.443245 180.333420,111.394966 183.893585,111.966835 
	C192.557251,113.358490 196.304977,111.279259 199.245911,103.017204 
	C199.762863,91.459648 200.042053,80.553131 199.914047,69.651382 
	C199.869629,65.869019 201.101044,64.680832 204.760468,64.918457 
	C207.134842,65.072647 209.560730,64.433311 211.963547,64.149513 
	C212.141663,64.110588 212.319794,64.071663 212.924255,64.302933 
	C213.852737,64.715469 214.354874,64.857803 214.857010,65.000137 
	C214.903931,67.705971 214.950867,70.411797 214.570862,73.644897 
	C212.670273,76.319153 211.706039,78.404366 214.849533,79.991508 
z"/>
<path fill="#242122" opacity="1.000000" stroke="none" 
	d="
M12.150305,80.248787 
	C15.253834,68.271469 19.000717,57.082775 26.428492,47.375904 
	C30.103531,42.573238 34.431499,40.939381 40.258507,41.670525 
	C43.767654,42.110836 47.377136,41.751492 52.175785,41.751492 
	C49.052162,44.877590 46.728672,46.858406 44.815666,49.177788 
	C37.013680,58.637115 33.147915,69.947578 31.160078,81.725037 
	C28.823774,95.567108 27.541300,109.587051 25.759743,123.867065 
	C20.416157,123.867065 14.497359,123.867065 8.178532,123.867065 
	C7.369953,109.284340 9.366584,94.943947 12.150305,80.248787 
z"/>
<path fill="#0EB0B0" opacity="1.000000" stroke="none" 
	d="
M52.449375,55.441917 
	C52.276791,53.823215 51.817265,52.014244 52.515011,51.212749 
	C55.856003,47.374981 61.734623,46.729698 66.629204,49.566856 
	C75.246986,54.562176 78.485947,63.180195 80.849182,72.053009 
	C85.080666,87.940163 85.104523,104.256729 85.048241,120.558044 
	C85.037819,123.578011 83.482033,124.167397 80.954224,124.129639 
	C76.099792,124.057114 71.243515,124.108528 66.503914,124.108528 
	C65.983276,112.272888 65.906662,100.962379 64.878731,89.739006 
	C63.754143,77.460182 61.276806,65.433067 52.449375,55.441917 
z"/>
<path fill="#0FB0B1" opacity="1.000000" stroke="none" 
	d="
M306.010437,123.914711 
	C301.561066,123.914711 297.111694,123.914711 292.364380,123.914711 
	C292.364380,104.057655 292.364380,84.494186 292.364380,65.185837 
	C296.902985,64.790932 301.513977,64.389717 306.559753,64.517899 
	C306.997650,82.748779 307.031189,100.450401 306.960297,118.151604 
	C306.952606,120.073875 306.341583,121.993736 306.010437,123.914711 
z"/>
<path fill="#10B0AF" opacity="1.000000" stroke="none" 
	d="
M49.180256,7.239892 
	C50.032520,7.027065 50.884789,6.814238 51.991966,6.395873 
	C52.914078,6.189738 53.581272,6.189141 54.835587,6.315493 
	C56.265778,6.560160 57.108845,6.677879 57.951912,6.795599 
	C58.663025,7.215559 59.374134,7.635521 60.586830,8.387934 
	C65.325600,12.150489 66.282539,16.854630 66.227478,21.951830 
	C66.105446,22.320488 65.983421,22.689144 65.642807,23.497818 
	C65.360046,24.280045 65.295853,24.622252 65.231667,24.964460 
	C65.231667,24.964460 65.014122,25.406057 64.700348,25.797537 
	C64.112083,26.755487 63.837589,27.321959 63.563091,27.888430 
	C59.069107,32.649055 53.743599,33.224033 47.338348,30.621706 
	C39.194431,22.500597 40.828571,12.436489 49.180256,7.239892 
z"/>
<path fill="#232224" opacity="1.000000" stroke="none" 
	d="
M48.819054,7.107679 
	C40.828571,12.436489 39.194431,22.500597 46.928028,30.557537 
	C43.314877,33.334618 40.085743,31.903214 37.310505,29.290535 
	C33.402626,25.611567 31.970520,20.997673 33.508396,15.762323 
	C34.968494,10.791746 38.115658,7.470951 43.728760,6.403699 
	C45.495026,6.456972 46.976440,6.716219 48.819054,7.107679 
z"/>
<path fill="#23B5B6" opacity="1.000000" stroke="none" 
	d="
M279.004517,114.966278 
	C279.320740,113.031952 279.929993,111.094322 279.908203,109.163811 
	C279.672241,88.242760 279.327637,67.322960 279.052887,46.402290 
	C279.036224,45.135353 279.359955,43.863956 279.601868,42.007008 
	C275.170349,42.007008 271.054321,42.007008 266.239258,42.004753 
	C265.540222,42.002502 265.069641,42.000641 265.069641,42.000641 
	C266.067596,41.489323 267.049133,40.578537 268.066376,40.536758 
	C272.178253,40.367863 276.301117,40.466690 280.752960,40.466690 
	C280.752960,68.514008 280.752960,96.023399 280.361694,123.285202 
	C279.648438,120.347160 279.326477,117.656723 279.004517,114.966278 
z"/>
<path fill="#209B9A" opacity="1.000000" stroke="none" 
	d="
M320.631714,64.282593 
	C321.035126,89.606659 321.126984,115.061295 320.907806,140.513245 
	C320.870056,144.896149 322.002472,146.299011 326.461884,146.099518 
	C336.317657,145.658585 334.832458,147.237717 335.003479,137.607971 
	C335.079956,133.300385 335.233917,128.994186 335.656189,124.423035 
	C335.950409,131.496719 335.941162,138.834717 335.295593,146.587341 
	C329.939026,147.030380 325.218719,147.058792 320.498444,147.087189 
	C320.306824,145.963028 319.949219,144.839066 319.947968,143.714691 
	C319.919434,117.933968 319.927704,92.153191 319.944672,66.372437 
	C319.945129,65.718987 320.120972,65.065651 320.631714,64.282593 
z"/>
<path fill="#43C1C0" opacity="1.000000" stroke="none" 
	d="
M133.228104,84.454803 
	C133.830002,85.806915 134.801041,87.616295 134.830658,89.440956 
	C134.984573,98.928169 134.862961,108.419533 134.927719,117.908829 
	C134.939957,119.702271 135.361008,121.492912 135.794067,123.656952 
	C132.496613,124.712112 133.211624,122.131920 133.204407,120.294937 
	C133.158005,108.503128 133.170059,96.711082 133.228104,84.454803 
z"/>
<path fill="#18A09E" opacity="1.000000" stroke="none" 
	d="
M306.454529,123.975418 
	C306.341583,121.993736 306.952606,120.073875 306.960297,118.151604 
	C307.031189,100.450401 306.997650,82.748779 306.989014,64.587173 
	C307.395660,64.882996 308.165253,65.637779 308.167694,66.395042 
	C308.227142,84.853996 308.220276,103.313271 308.142487,121.772148 
	C308.139313,122.528526 307.331512,123.281532 306.454529,123.975418 
z"/>
<path fill="#03A8A7" opacity="1.000000" stroke="none" 
	d="
M211.504898,64.078163 
	C209.560730,64.433311 207.134842,65.072647 204.760468,64.918457 
	C201.101044,64.680832 199.869629,65.869019 199.914047,69.651382 
	C200.042053,80.553131 199.762863,91.459648 199.363525,102.668526 
	C199.083450,90.184776 199.083450,77.396805 199.083450,64.006813 
	C203.189835,64.006813 207.118042,64.006813 211.504898,64.078163 
z"/>
<path fill="#02A8A8" opacity="1.000000" stroke="none" 
	d="
M279.003540,115.419495 
	C279.326477,117.656723 279.648438,120.347160 279.976929,123.470047 
	C272.637085,123.956726 265.290741,124.010956 257.483032,123.984940 
	C261.918549,123.603302 266.811859,123.147331 271.713043,123.035454 
	C279.795105,122.850960 278.937347,123.808670 279.003540,115.419495 
z"/>
<path fill="#F6FBFA" opacity="1.000000" stroke="none" 
	d="
M66.464836,21.662888 
	C66.282539,16.854630 65.325600,12.150489 60.900932,8.420774 
	C63.928764,7.708374 68.133438,12.162014 67.674873,15.552496 
	C67.411308,17.501184 67.030327,19.433990 66.464836,21.662888 
z"/>
<path fill="#03ABAA" opacity="1.000000" stroke="none" 
	d="
M123.500641,64.081970 
	C116.864349,64.324036 109.765671,64.502922 102.355400,64.413620 
	C109.041954,64.103210 116.040108,64.060997 123.500641,64.081970 
z"/>
<path fill="#03AAA8" opacity="1.000000" stroke="none" 
	d="
M264.992493,45.475594 
	C265.256805,50.806763 265.438080,56.598728 265.331482,62.690353 
	C264.998901,57.305470 264.954193,51.620926 264.992493,45.475594 
z"/>
<path fill="#0EB0B0" opacity="1.000000" stroke="none" 
	d="
M320.789703,147.301300 
	C325.218719,147.058792 329.939026,147.030380 335.088806,147.015808 
	C330.705872,147.191544 325.893433,147.353485 320.789703,147.301300 
z"/>
<path fill="#02ACA7" opacity="1.000000" stroke="none" 
	d="
M214.912506,79.567566 
	C211.706039,78.404366 212.670273,76.319153 214.496826,74.090561 
	C214.891647,75.720512 214.933563,77.432068 214.912506,79.567566 
z"/>
<path fill="#03AAAA" opacity="1.000000" stroke="none" 
	d="
M171.516983,64.087021 
	C168.867050,64.337051 165.770645,64.521523 162.369659,64.461182 
	C165.066895,64.151390 168.068710,64.086426 171.516983,64.087021 
z"/>
<path fill="#F6FBFA" opacity="1.000000" stroke="none" 
	d="
M57.719162,6.565495 
	C57.108845,6.677879 56.265778,6.560160 55.163143,6.249425 
	C55.764523,6.149404 56.625465,6.242398 57.719162,6.565495 
z"/>
<path fill="#03AAA8" opacity="1.000000" stroke="none" 
	d="
M258.650024,64.092484 
	C258.423492,64.287979 257.876587,64.419823 257.182343,64.351852 
	C257.466553,64.110962 257.898071,64.069901 258.650024,64.092484 
z"/>
<path fill="#02ACA7" opacity="1.000000" stroke="none" 
	d="
M214.831528,64.687500 
	C214.354874,64.857803 213.852737,64.715469 213.191910,64.359215 
	C213.624161,64.221817 214.215103,64.298340 214.831528,64.687500 
z"/>
<path fill="#F6FBFA" opacity="1.000000" stroke="none" 
	d="
M63.891617,27.793655 
	C63.837589,27.321959 64.112083,26.755487 64.665115,26.041138 
	C64.702492,26.495132 64.461319,27.097006 63.891617,27.793655 
z"/>
<path fill="#03AAA8" opacity="1.000000" stroke="none" 
	d="
M262.738098,64.108307 
	C262.718597,64.257713 262.461700,64.353439 262.115540,64.306305 
	C262.026276,64.163445 262.500702,64.054611 262.738098,64.108307 
z"/>
<path fill="#03AAAA" opacity="1.000000" stroke="none" 
	d="
M176.946259,64.726875 
	C176.650284,64.909988 176.415482,64.753464 176.127548,64.335129 
	C176.336456,64.251381 176.647461,64.356018 176.946259,64.726875 
z"/>
<path fill="#03ABAA" opacity="1.000000" stroke="none" 
	d="
M128.735992,64.101608 
	C128.714767,64.250969 128.458511,64.345863 128.115875,64.295235 
	C128.029495,64.149704 128.500961,64.047150 128.735992,64.101608 
z"/>
<path fill="#03ABAA" opacity="1.000000" stroke="none" 
	d="
M97.731781,64.109894 
	C97.871490,64.512260 97.650139,64.655060 97.198494,64.466499 
	C97.084976,64.361351 97.487503,64.076546 97.731781,64.109894 
z"/>
<path fill="#03AAA8" opacity="1.000000" stroke="none" 
	d="
M265.013367,42.249165 
	C265.069641,42.000641 265.540222,42.002502 265.775269,42.014759 
	C265.910461,42.327015 265.736511,42.575069 265.286469,42.881165 
	C265.041992,42.826664 264.999512,42.662174 265.013367,42.249165 
z"/>
<path fill="#F6FBFA" opacity="1.000000" stroke="none" 
	d="
M65.425079,24.794445 
	C65.295853,24.622252 65.360046,24.280045 65.649803,23.790476 
	C65.789749,23.970221 65.704117,24.297325 65.425079,24.794445 
z"/>
<path fill="#F7FDFD" opacity="1.000000" stroke="none" 
	d="
M349.425598,77.169891 
	C355.097412,78.044701 357.010406,81.450623 356.987183,86.402306 
	C356.963776,91.399971 357.054474,96.398689 356.988159,101.395523 
	C356.899506,108.074776 354.588959,110.693916 348.027069,111.641922 
	C346.716034,111.831329 345.369141,111.803780 344.038208,111.817497 
	C341.575958,111.842857 339.113281,111.824753 336.340637,111.824753 
	C336.340637,99.766647 336.340637,88.220451 336.340637,76.226410 
	C340.788727,76.543793 344.896484,76.836899 349.425598,77.169891 
z"/>
<path fill="#F4FBFB" opacity="1.000000" stroke="none" 
	d="
M264.762573,104.893425 
	C264.761597,107.349724 264.761597,109.320564 264.761597,111.274872 
	C264.064240,111.584808 263.640625,111.924515 263.200989,111.946686 
	C244.835968,112.872566 242.902039,111.004364 243.081299,92.551682 
	C243.097443,90.890121 243.087830,89.225624 243.184280,87.567978 
	C243.629623,79.913658 246.449310,77.166985 254.028519,77.041367 
	C257.468201,76.984352 260.909607,77.031685 264.763550,77.031685 
	C264.763550,86.540451 264.763550,95.474205 264.762573,104.893425 
z"/>
<path fill="#14A5A3" opacity="1.000000" stroke="none" 
	d="
M110.979134,123.023651 
	C110.971588,108.782570 110.971588,94.512688 110.971588,80.242798 
	C111.165039,80.242401 111.358490,80.241997 111.551941,80.241592 
	C111.551941,94.311836 111.551941,108.382072 111.251221,122.748093 
	C110.950508,123.043877 110.986679,122.994835 110.979134,123.023651 
z"/>
</svg>